<svg width="1920" height="1080" viewBox="0 0 1920 1080" xmlns="http://www.w3.org/2000/svg"><rect width="1920" height="1080" fill="#3d1053"/><path d="M1286.6173066849565,542.9999999999999C1266.4917636012308,631.5130080208086,1317.8287430367457,689.6105413175169,1284.4200741351094,782.6145530394185C1251.0114052334732,875.6185647613202,1173.061181252059,1063.5159396735073,1086.1652932751385,1101.0240703314093C999.2694052982181,1138.5322009893114,860.828070155192,1070.631196821385,763.044746273587,1007.6633369868302C665.2614223919819,944.6954771522755,542.5292453498733,830.5875633628825,499.46534998550857,723.2169113240815C456.4014546211438,615.8462592852804,454.5295362593481,468.4194661391759,504.6613740873981,363.43942475402395C554.7932119154481,258.459383368872,701.5057237558517,139.29753818041127,800.2563769538084,93.33666301316987C899.0070301517651,47.37578784592847,996.3458006611959,61.307533433676085,1097.1652932751383,87.67417375057556C1197.9847858890807,114.04081406747504,1373.5979970691603,175.64886720632933,1405.1733326374633,251.5365049145667C1436.7486682057663,327.4241426228041,1306.7428497686822,454.48699197919126,1286.6173066849565,542.9999999999999C1266.4917636012308,631.5130080208086,1317.8287430367457,689.6105413175169,1284.4200741351094,782.6145530394185" fill="#df6688"/></svg>